<svg width="25" height="24" viewBox="0 0 25 24" fill="none" xmlns="http://www.w3.org/2000/svg">
<path d="M15.3334 5C19.1994 5 22.3334 8.13401 22.3334 12C22.3334 15.866 19.1994 19 15.3334 19H2.33337V12C2.33337 8.13401 5.46738 5 9.33337 5H15.3334ZM12.3334 8.25C11.9192 8.25 11.5834 8.58579 11.5834 9V15C11.5834 15.4142 11.9192 15.75 12.3334 15.75C12.7476 15.75 13.0834 15.4142 13.0834 15V9C13.0834 8.58579 12.7476 8.25 12.3334 8.25ZM8.33337 10.25C7.91916 10.25 7.58337 10.5858 7.58337 11V13C7.58337 13.4142 7.91916 13.75 8.33337 13.75C8.74759 13.75 9.08337 13.4142 9.08337 13V11C9.08337 10.5858 8.74759 10.25 8.33337 10.25ZM16.3334 10.25C15.9192 10.25 15.5834 10.5858 15.5834 11V13C15.5834 13.4142 15.9192 13.75 16.3334 13.75C16.7476 13.75 17.0834 13.4142 17.0834 13V11C17.0834 10.5858 16.7476 10.25 16.3334 10.25Z" fill="#52525C"/>
</svg>
