<svg width="24" height="24" viewBox="0 0 24 24" fill="none" xmlns="http://www.w3.org/2000/svg">
<path d="M16.34 5.07001L8.55001 6.91001C8.15302 7.00768 7.79032 7.21214 7.50123 7.50123C7.21214 7.79032 7.00768 8.15302 6.91001 8.55001L5.07001 16.34C4.98185 16.6977 4.98749 17.072 5.0864 17.4268C5.18531 17.7817 5.37414 18.105 5.6346 18.3654C5.89507 18.6259 6.21836 18.8147 6.57319 18.9136C6.92801 19.0125 7.30236 19.0182 7.66001 18.93L15.45 17.09C15.847 16.9923 16.2097 16.7879 16.4988 16.4988C16.7879 16.2097 16.9923 15.847 17.09 15.45L18.93 7.66001C19.0182 7.30236 19.0125 6.92801 18.9136 6.57319C18.8147 6.21836 18.6259 5.89507 18.3654 5.6346C18.105 5.37414 17.7817 5.18531 17.4268 5.0864C17.072 4.98749 16.6977 4.98185 16.34 5.07001ZM13.59 13.59C13.2755 13.905 12.8745 14.1195 12.438 14.2066C12.0015 14.2936 11.5489 14.2492 11.1376 14.079C10.7263 13.9088 10.3748 13.6204 10.1274 13.2503C9.88006 12.8803 9.74803 12.4451 9.74803 12C9.74803 11.5549 9.88006 11.1198 10.1274 10.7497C10.3748 10.3796 10.7263 10.0912 11.1376 9.92102C11.5489 9.7508 12.0015 9.70641 12.438 9.79345C12.8745 9.88049 13.2755 10.0951 13.59 10.41C14.0089 10.8332 14.2439 11.4046 14.2439 12C14.2439 12.5955 14.0089 13.1669 13.59 13.59Z" fill="#52525C"/>
</svg>
