<svg width="24" height="24" viewBox="0 0 24 24" fill="none" xmlns="http://www.w3.org/2000/svg">
<path fill-rule="evenodd" clip-rule="evenodd" d="M12 3.75C15.6244 3.75 18.5625 6.62123 18.5625 10.1631C18.5625 11.9192 17.84 13.5108 16.6699 14.6689C16.1392 15.1944 15.75 15.8743 15.75 16.6211C15.7498 17.2445 15.2445 17.7498 14.6211 17.75H9.37891C8.75553 17.7498 8.25024 17.2445 8.25 16.6211C8.25 15.8743 7.86079 15.1944 7.33008 14.6689C6.16002 13.5108 5.4375 11.9192 5.4375 10.1631C5.43753 6.62123 8.37565 3.75 12 3.75ZM12 6C11.5858 6 11.25 6.33579 11.25 6.75C11.25 7.16421 11.5858 7.5 12 7.5C13.5335 7.5 14.8125 8.7852 14.8125 10.415C14.8127 10.8291 15.1484 11.165 15.5625 11.165C15.9766 11.165 16.3123 10.8291 16.3125 10.415C16.3125 7.99702 14.4016 6 12 6Z" fill="#52525C"/>
<path d="M13 19.25C13.4142 19.25 13.75 19.5858 13.75 20C13.75 20.4142 13.4142 20.75 13 20.75H11C10.5858 20.75 10.25 20.4142 10.25 20C10.25 19.5858 10.5858 19.25 11 19.25H13Z" fill="#52525C"/>
</svg>
