<svg width="24" height="24" viewBox="0 0 24 24" fill="none" xmlns="http://www.w3.org/2000/svg">
<path d="M12 2C11.0734 2.00525 10.1862 2.37568 9.53093 3.03093C8.87568 3.68617 8.50525 4.57336 8.5 5.5V10.5C8.50121 11.0637 8.63815 11.6188 8.89924 12.1183C9.16033 12.6179 9.5379 13.0472 10 13.37L10.34 13.66L15.5 8.5V5.5C15.5 4.57174 15.1313 3.6815 14.4749 3.02513C13.8185 2.36875 12.9283 2 12 2ZM13 8.75H11C10.8011 8.75 10.6103 8.67098 10.4697 8.53033C10.329 8.38968 10.25 8.19891 10.25 8C10.25 7.80109 10.329 7.61032 10.4697 7.46967C10.6103 7.32902 10.8011 7.25 11 7.25H13C13.1989 7.25 13.3897 7.32902 13.5303 7.46967C13.671 7.61032 13.75 7.80109 13.75 8C13.75 8.19891 13.671 8.38968 13.5303 8.53033C13.3897 8.67098 13.1989 8.75 13 8.75ZM13 5.75H11C10.8011 5.75 10.6103 5.67098 10.4697 5.53033C10.329 5.38968 10.25 5.19891 10.25 5C10.25 4.80109 10.329 4.61032 10.4697 4.46967C10.6103 4.32902 10.8011 4.25 11 4.25H13C13.1989 4.25 13.3897 4.32902 13.5303 4.46967C13.671 4.61032 13.75 4.80109 13.75 5C13.75 5.19891 13.671 5.38968 13.5303 5.53033C13.3897 5.67098 13.1989 5.75 13 5.75Z" fill="#47ECD5"/>
<path d="M12 17V22" stroke="#47ECD5" stroke-width="1.5" stroke-linecap="round" stroke-linejoin="round"/>
<path d="M18.5 9.75C18.3019 9.75259 18.1126 9.83244 17.9725 9.97253C17.8325 10.1126 17.7526 10.3019 17.75 10.5C17.7474 12.0242 17.1407 13.4852 16.063 14.5629C14.9852 15.6407 13.5242 16.2474 12 16.25C11.5525 16.2498 11.1064 16.1994 10.67 16.1C10.4778 16.0547 10.2755 16.0871 10.107 16.1901C9.9385 16.293 9.81741 16.4583 9.77001 16.65C9.72747 16.8447 9.76205 17.0482 9.86648 17.2179C9.97091 17.3876 10.1371 17.5103 10.33 17.56C10.8783 17.6829 11.4381 17.7466 12 17.75C13.922 17.7474 15.7645 16.9827 17.1236 15.6236C18.4827 14.2645 19.2474 12.422 19.25 10.5C19.2474 10.3019 19.1676 10.1126 19.0275 9.97253C18.8874 9.83244 18.6981 9.75259 18.5 9.75Z" fill="#47ECD5"/>
<path d="M22.53 1.47007C22.3894 1.32962 22.1988 1.25073 22 1.25073C21.8013 1.25073 21.6106 1.32962 21.47 1.47007L8.17001 14.7701C7.56541 14.2352 7.08152 13.5779 6.75049 12.8417C6.41946 12.1055 6.24885 11.3073 6.25001 10.5001C6.25001 10.3012 6.17099 10.1104 6.03034 9.96974C5.88969 9.82909 5.69892 9.75007 5.50001 9.75007C5.3011 9.75007 5.11033 9.82909 4.96968 9.96974C4.82903 10.1104 4.75001 10.3012 4.75001 10.5001C4.74947 11.504 4.95918 12.497 5.36564 13.415C5.77211 14.333 6.36632 15.1556 7.11001 15.8301L1.47001 21.4701C1.32956 21.6107 1.25067 21.8013 1.25067 22.0001C1.25067 22.1988 1.32956 22.3894 1.47001 22.5301C1.61064 22.6705 1.80126 22.7494 2.00001 22.7494C2.19876 22.7494 2.38939 22.6705 2.53001 22.5301L22.53 2.53007C22.6705 2.38945 22.7494 2.19882 22.7494 2.00007C22.7494 1.80132 22.6705 1.6107 22.53 1.47007Z" fill="#47ECD5"/>
</svg>
