<svg width="25" height="24" viewBox="0 0 25 24" fill="none" xmlns="http://www.w3.org/2000/svg">
<path d="M2.75 12C2.75 8.13401 5.88401 5 9.75 5H15.75C19.616 5 22.75 8.13401 22.75 12V12C22.75 15.866 19.616 19 15.75 19H2.75V12Z" stroke="white" stroke-width="1.5" stroke-linejoin="round"/>
<path d="M9.75 12C9.75 12.5523 9.30228 13 8.75 13C8.19772 13 7.75 12.5523 7.75 12C7.75 11.4477 8.19772 11 8.75 11C9.30228 11 9.75 11.4477 9.75 12Z" fill="white"/>
<path d="M13.75 12C13.75 12.5523 13.3023 13 12.75 13C12.1977 13 11.75 12.5523 11.75 12C11.75 11.4477 12.1977 11 12.75 11C13.3023 11 13.75 11.4477 13.75 12Z" fill="white"/>
<path d="M17.75 12C17.75 12.5523 17.3023 13 16.75 13C16.1977 13 15.75 12.5523 15.75 12C15.75 11.4477 16.1977 11 16.75 11C17.3023 11 17.75 11.4477 17.75 12Z" fill="white"/>
</svg>
