<svg width="28" height="15" viewBox="0 0 28 15" fill="none" xmlns="http://www.w3.org/2000/svg">
<rect x="2.66663" y="2.82999" width="21" height="9" rx="2.66667" fill="white"/>
<g opacity="0.4">
<path fill-rule="evenodd" clip-rule="evenodd" d="M19.1854 0.833588H7.14785C6.23196 0.833588 5.51879 0.833588 4.94397 0.872808C4.36068 0.912605 3.88317 0.994447 3.44455 1.17613C2.34192 1.63285 1.46589 2.50889 1.00917 3.61151C0.827485 4.05013 0.745643 4.52764 0.705846 5.11093C0.666626 5.68575 0.666626 6.39869 0.666626 7.31459V7.35236C0.666626 8.26825 0.666626 8.98142 0.705846 9.55625C0.745643 10.1395 0.827485 10.617 1.00917 11.0557C1.46589 12.1583 2.34192 13.0343 3.44455 13.491C3.88317 13.6727 4.36068 13.7546 4.94397 13.7944C5.51884 13.8336 6.23185 13.8336 7.14785 13.8336H19.1854C20.1014 13.8336 20.8144 13.8336 21.3893 13.7944C21.9726 13.7546 22.4501 13.6727 22.8887 13.491C23.9913 13.0343 24.8674 12.1583 25.3241 11.0557C25.5058 10.617 25.5876 10.1395 25.6274 9.55625C25.6666 8.98138 25.6666 8.26838 25.6666 7.35239V7.31481C25.6666 6.39883 25.6666 5.6858 25.6274 5.11093C25.5876 4.52764 25.5058 4.05013 25.3241 3.61151C24.8674 2.50889 23.9913 1.63285 22.8887 1.17613C22.4501 0.994447 21.9726 0.912605 21.3893 0.872808C20.8145 0.833588 20.1013 0.833588 19.1854 0.833588ZM3.82723 2.10001C4.1237 1.97721 4.47967 1.90681 5.01204 1.87049C5.5489 1.83386 6.2279 1.83359 7.16663 1.83359H19.1666C20.1054 1.83359 20.7844 1.83386 21.3212 1.87049C21.8536 1.90681 22.2096 1.97721 22.506 2.10001C23.3636 2.45524 24.045 3.1366 24.4002 3.9942C24.523 4.29066 24.5934 4.64663 24.6297 5.179C24.6664 5.71586 24.6666 6.39486 24.6666 7.33359C24.6666 8.27231 24.6664 8.95131 24.6297 9.48817C24.5934 10.0205 24.523 10.3765 24.4002 10.673C24.045 11.5306 23.3636 12.2119 22.506 12.5672C22.2096 12.69 21.8536 12.7604 21.3212 12.7967C20.7844 12.8333 20.1054 12.8336 19.1666 12.8336H7.16663C6.2279 12.8336 5.5489 12.8333 5.01204 12.7967C4.47967 12.7604 4.1237 12.69 3.82723 12.5672C2.96964 12.2119 2.28828 11.5306 1.93305 10.673C1.81025 10.3765 1.73985 10.0205 1.70353 9.48817C1.6669 8.95131 1.66663 8.27231 1.66663 7.33359C1.66663 6.39486 1.6669 5.71586 1.70353 5.179C1.73985 4.64663 1.81025 4.29066 1.93305 3.9942C2.28828 3.1366 2.96964 2.45524 3.82723 2.10001Z" fill="white"/>
<path d="M26.6666 5.33286C27.4496 5.65938 28 6.43215 28 7.33347C28 8.23478 27.4496 9.00756 26.6666 9.33408V5.33286Z" fill="white"/>
</g>
</svg>
