<svg width="20" height="13" viewBox="0 0 20 13" fill="none" xmlns="http://www.w3.org/2000/svg">
<path d="M17.6733 0.166656C17.1211 0.166656 16.6733 0.614371 16.6733 1.16666V11.5C16.6733 12.0523 17.1211 12.5 17.6733 12.5H19.0067C19.559 12.5 20.0067 12.0523 20.0067 11.5V1.16666C20.0067 0.614372 19.559 0.166656 19.0067 0.166656H17.6733Z" fill="white"/>
<path d="M11.34 3.83332C11.34 3.28104 11.7877 2.83332 12.34 2.83332H13.6733C14.2256 2.83332 14.6733 3.28104 14.6733 3.83332V11.5C14.6733 12.0523 14.2256 12.5 13.6733 12.5H12.34C11.7877 12.5 11.34 12.0523 11.34 11.5V3.83332Z" fill="white"/>
<path d="M7.00667 5.49999C6.45439 5.49999 6.00667 5.94771 6.00667 6.49999V11.5C6.00667 12.0523 6.45439 12.5 7.00667 12.5H8.34001C8.89229 12.5 9.34001 12.0523 9.34001 11.5V6.49999C9.34001 5.94771 8.89229 5.49999 8.34001 5.49999H7.00667Z" fill="white"/>
<path d="M1.67334 7.83332C1.12106 7.83332 0.67334 8.28104 0.67334 8.83332V11.5C0.67334 12.0523 1.12105 12.5 1.67334 12.5H3.00667C3.55896 12.5 4.00667 12.0523 4.00667 11.5V8.83332C4.00667 8.28104 3.55896 7.83332 3.00667 7.83332H1.67334Z" fill="white"/>
</svg>
