<svg width="18" height="13" viewBox="0 0 18 13" fill="none" xmlns="http://www.w3.org/2000/svg">
<path fill-rule="evenodd" clip-rule="evenodd" d="M8.83713 2.7281C11.3037 2.72821 13.6759 3.68586 15.4635 5.40312C15.5982 5.5357 15.8133 5.53403 15.9459 5.39937L17.2327 4.08717C17.2998 4.01887 17.3372 3.92636 17.3367 3.8301C17.3361 3.73385 17.2976 3.64178 17.2297 3.57429C12.5378 -0.969179 5.13575 -0.969179 0.443833 3.57429C0.375867 3.64173 0.337304 3.73377 0.336678 3.83003C0.336051 3.92628 0.373412 4.01882 0.440493 4.08717L1.72763 5.39937C1.86013 5.53423 2.07545 5.53591 2.20998 5.40312C3.99783 3.68575 6.37034 2.72809 8.83713 2.7281ZM8.83716 6.99718C10.1924 6.9971 11.4992 7.50608 12.5038 8.42523C12.6397 8.55568 12.8537 8.55286 12.9861 8.41886L14.2714 7.10666C14.3391 7.03783 14.3767 6.94446 14.3757 6.84743C14.3747 6.7504 14.3353 6.65782 14.2662 6.5904C11.2071 3.71512 6.46977 3.71512 3.4107 6.5904C3.3416 6.65782 3.30217 6.75045 3.30127 6.84751C3.30036 6.94456 3.33805 7.03793 3.40587 7.10666L4.69079 8.41886C4.82323 8.55286 5.03727 8.55568 5.17314 8.42523C6.17703 7.50669 7.48284 6.99775 8.83716 6.99718ZM11.4118 9.86945C11.4137 9.96675 11.3759 10.0606 11.3072 10.1287L9.08388 12.3958C9.0187 12.4625 8.92985 12.5 8.83714 12.5C8.74442 12.5 8.65557 12.4625 8.59039 12.3958L6.36675 10.1287C6.29806 10.0605 6.26027 9.96667 6.26231 9.86937C6.26434 9.77207 6.30602 9.67993 6.37751 9.61471C7.79738 8.40124 9.8769 8.40124 11.2968 9.61471C11.3682 9.67999 11.4098 9.77215 11.4118 9.86945Z" fill="white"/>
</svg>
